<svg width="127" height="52" viewBox="0 0 127 52" fill="none" xmlns="http://www.w3.org/2000/svg">
<g clip-path="url(#clip0_5629_942)">
<path d="M52.0902 2.24407C52.0902 1.64785 52.0978 1.19581 52.1093 0.899647C52.1207 0.599588 52.2009 0.385259 52.3498 0.248868C52.4949 0.112477 52.7354 0.0384365 53.0676 0.022849C53.3998 0.0111583 53.8885 0.00336456 54.5261 0.00336456C55.1637 0.00336456 55.6524 0.0111583 55.9846 0.022849C56.3168 0.0384365 56.5573 0.112477 56.7024 0.248868C56.8475 0.385259 56.9277 0.603484 56.943 0.899647C56.9544 1.19971 56.962 1.64785 56.962 2.24407C56.962 2.84029 56.9544 3.29233 56.943 3.5885C56.9277 3.88856 56.8475 4.10678 56.7024 4.23928C56.5573 4.37567 56.3168 4.44971 55.9846 4.46529C55.6524 4.48088 55.1637 4.48478 54.5261 4.48478C53.8885 4.48478 53.3998 4.47699 53.0676 4.46529C52.7354 4.44971 52.4949 4.37567 52.3498 4.23928C52.2047 4.10288 52.1245 3.88466 52.1093 3.5885C52.094 3.28844 52.0902 2.84029 52.0902 2.24407ZM56.9659 6.85019V39.0073H52.0902V6.85019H56.9659ZM79.6911 12.8085C79.2788 11.5732 78.7519 10.5444 78.1143 9.72998C77.4766 8.91553 76.7817 8.28814 76.0372 7.85558C75.2927 7.42303 74.5863 7.09959 73.9182 6.89695C73.2538 6.69431 72.6811 6.5774 72.2 6.55013C71.719 6.52285 71.4288 6.51116 71.3219 6.51116C71.2417 6.51116 70.9553 6.52674 70.4628 6.55013C69.9703 6.5774 69.3899 6.69431 68.7256 6.89695C68.0612 7.09959 67.3549 7.41913 66.6065 7.85558C65.862 8.29203 65.1671 8.91553 64.5295 9.72998C63.8919 10.5444 63.365 11.5732 62.9526 12.8085C62.5403 14.0438 62.3341 15.5753 62.3341 17.3952V39.0073H67.2098V30.9719L75.4416 26.0228V39.0073H80.3173V17.399C80.3173 15.5792 80.1111 14.0477 79.6988 12.8124L79.6911 12.8085ZM67.206 25.1967V17.3952C67.206 16.7989 67.2594 16.1871 67.3663 15.5597C67.4732 14.9362 67.6718 14.3634 67.9658 13.849C68.2598 13.3346 68.6721 12.9059 69.2028 12.563C69.7374 12.224 70.4399 12.0525 71.3219 12.0525C72.2039 12.0525 72.9064 12.224 73.4409 12.563C73.9754 12.902 74.3878 13.3307 74.678 13.849C74.972 14.3673 75.1705 14.9362 75.2774 15.5597C75.3843 16.1871 75.4378 16.7989 75.4378 17.3952V20.2477L67.206 25.1967ZM9.54904 6.85019V34.2414C9.54904 35.0013 9.46886 35.6676 9.3085 36.2405C9.14814 36.8094 8.93432 37.316 8.67088 37.7486C8.40361 38.1811 8.1058 38.5435 7.77363 38.828C7.44145 39.1125 7.10164 39.3502 6.7542 39.5411C5.92949 40.0049 5.00933 40.2465 3.99754 40.2737H0V35.2974H2.15722C2.76811 35.2974 3.24919 35.2 3.59664 35.013C3.94408 34.822 4.19608 34.6194 4.35644 34.4011C4.54352 34.1284 4.65043 33.8322 4.67716 33.5049V6.85019H9.55286H9.54904ZM4.67334 2.29863C4.67334 1.70241 4.68098 1.25037 4.69243 0.954204C4.70388 0.654144 4.78406 0.439815 4.93297 0.303424C5.07806 0.167034 5.3186 0.0929928 5.65077 0.0774053C5.98294 0.0657147 6.46784 0.0579209 7.10928 0.0579209C7.75072 0.0579209 8.23561 0.0657147 8.56779 0.0774053C8.89996 0.0929928 9.1405 0.167034 9.28559 0.303424C9.43068 0.439815 9.51086 0.658041 9.52613 0.954204C9.53758 1.25426 9.54522 1.70241 9.54522 2.29863C9.54522 2.89485 9.53758 3.34689 9.52613 3.64305C9.51086 3.94311 9.43068 4.16134 9.28559 4.29383C9.1405 4.43022 8.89996 4.50426 8.56779 4.51985C8.23561 4.53544 7.7469 4.53934 7.10928 4.53934C6.47166 4.53934 5.98294 4.53154 5.65077 4.51985C5.3186 4.50426 5.07806 4.43022 4.93297 4.29383C4.78788 4.15744 4.7077 3.93922 4.69243 3.64305C4.67716 3.34299 4.67334 2.89485 4.67334 2.29863ZM46.741 24.6472C46.741 24.5303 46.7334 24.4134 46.7258 24.2965V6.85019H41.8462L41.8195 26.0891L35.9664 15.8832L32.3239 9.53903C32.3239 9.53903 32.3163 9.52734 32.3163 9.52345C31.461 7.99197 29.8536 6.9593 28.0057 6.9593V21.861C28.0057 21.9779 28.0133 22.0948 28.0209 22.2117V28.7701C28.0209 29.3664 27.9675 29.9782 27.8606 30.6056C27.7537 31.2291 27.5551 31.8019 27.2611 32.3163C26.9672 32.8307 26.5548 33.2594 26.0241 33.6023C25.4896 33.9413 24.787 34.1128 23.905 34.1128C23.0231 34.1128 22.3205 33.9413 21.786 33.6023C21.2515 33.2633 20.8391 32.8346 20.5489 32.3163C20.255 31.798 20.0564 31.2291 19.9495 30.6056C19.8443 29.9996 19.7906 29.3855 19.7891 28.7701V6.85019H14.9135V28.7701C14.9135 30.59 15.1196 32.1215 15.532 33.3568C15.9443 34.5921 16.4712 35.6209 17.1089 36.4353C17.7465 37.2498 18.4414 37.8772 19.1859 38.3097C19.9304 38.7462 20.6368 39.0657 21.3049 39.2683C21.9693 39.471 22.542 39.5879 23.0231 39.6152C23.5041 39.6424 23.7943 39.6541 23.9012 39.6541C23.9814 39.6541 24.2678 39.6386 24.7603 39.6152C25.2528 39.5879 25.8332 39.471 26.4975 39.2683C27.1619 39.0657 27.8682 38.7462 28.6166 38.3097C29.3611 37.8733 30.056 37.2498 30.6936 36.4353C31.3312 35.6209 31.8581 34.5921 32.2705 33.3568C32.6828 32.1215 32.889 30.59 32.889 28.7701V26.9269L32.9196 20.3295L42.3388 36.977C42.9115 37.9902 43.7782 38.715 44.7633 39.1242C45.3665 39.3931 46.0347 39.5411 46.7334 39.5411V24.6472H46.741Z" fill="#683F94"/>
<path d="M15.635 51.8675V49.2293H12.9165V51.8675H11.7024V45.5H12.9165V48.0603H15.635V45.5H16.8568V51.8675H15.635ZM18.8117 51.8675V45.5H22.7176V46.6691H20.0258V48.1226H22.4618V49.2254H20.0258V50.6984H22.7176V51.8675H18.8117ZM24.4586 51.8675V45.5H25.6919V51.8675H24.4586ZM30.3461 51.8675V45.5H31.5794V51.8675H30.3461ZM36.6345 47.3588C36.5734 47.0081 36.2909 46.4625 35.5005 46.4625C34.9126 46.4625 34.5231 46.8483 34.5231 47.2692C34.5231 47.6199 34.7446 47.8966 35.1989 47.9862L36.0694 48.1577C37.2034 48.3837 37.8105 49.1358 37.8105 50.036C37.8105 51.0141 37.0087 52.0039 35.5578 52.0039C33.9046 52.0039 33.1753 50.9167 33.076 50.0087L34.2024 49.7047C34.2558 50.3321 34.6873 50.8972 35.5654 50.8972C36.2183 50.8972 36.5772 50.5659 36.5772 50.1178C36.5772 49.7515 36.3062 49.4631 35.8213 49.3618L34.9507 49.1826C33.958 48.976 33.3128 48.3213 33.3128 47.3588C33.3128 46.2287 34.3055 45.3636 35.4853 45.3636C36.9972 45.3636 37.5776 46.2989 37.7188 47.0159L36.6269 47.3588H36.6345ZM39.3721 51.8675V45.5H43.278V46.6691H40.5862V48.1226H43.0222V49.2254H40.5862V50.6984H43.278V51.8675H39.3721ZM49.0662 51.8675L46.2332 47.351V51.8675H45.019V45.5H46.531L49.1273 49.7125V45.5H50.3414V51.8675H49.0662ZM54.9995 51.8675V45.5H56.2328V51.8675H54.9995ZM61.2879 47.3588C61.2268 47.0081 60.9443 46.4625 60.1539 46.4625C59.5659 46.4625 59.1765 46.8483 59.1765 47.2692C59.1765 47.6199 59.3979 47.8966 59.8523 47.9862L60.7228 48.1577C61.8568 48.3837 62.4639 49.1358 62.4639 50.036C62.4639 51.0141 61.6621 52.0039 60.2112 52.0039C58.558 52.0039 57.8287 50.9167 57.7294 50.0087L58.8558 49.7047C58.9092 50.3321 59.3407 50.8972 60.2188 50.8972C60.8717 50.8972 61.2306 50.5659 61.2306 50.1178C61.2306 49.7515 60.9595 49.4631 60.4747 49.3618L59.6041 49.1826C58.6114 48.976 57.9662 48.3213 57.9662 47.3588C57.9662 46.2287 58.9589 45.3636 60.1387 45.3636C61.6506 45.3636 62.231 46.2989 62.3722 47.0159L61.2803 47.3588H61.2879ZM67.6145 50.414H65.0793L64.56 51.8675H63.2771L65.6711 45.5H67.0799L69.4548 51.8675H68.1337L67.6145 50.414ZM65.484 49.2839H67.2098L66.3469 46.8795L65.484 49.2839Z" fill="#683F94"/>
<path d="M27.4597 48.8318C27.4597 48.6954 27.4597 48.5902 27.4635 48.524C27.4635 48.4538 27.4864 48.4071 27.517 48.3759C27.5514 48.3447 27.6048 48.3291 27.6812 48.3252C27.7575 48.3252 27.8683 48.3213 28.0172 48.3213C28.1661 48.3213 28.2768 48.3213 28.3532 48.3252C28.4295 48.3252 28.483 48.3447 28.5173 48.3759C28.5517 48.4071 28.5708 48.4577 28.5708 48.524C28.5708 48.5941 28.5746 48.6954 28.5746 48.8318C28.5746 48.9682 28.5746 49.0734 28.5708 49.1397C28.5708 49.2098 28.5479 49.2566 28.5173 49.2878C28.483 49.3189 28.4295 49.3345 28.3532 49.3384C28.2768 49.3384 28.1661 49.3423 28.0172 49.3423C27.8683 49.3423 27.7575 49.3423 27.6812 49.3384C27.6048 49.3384 27.5475 49.3189 27.517 49.2878C27.4826 49.2566 27.4635 49.2059 27.4635 49.1397C27.4635 49.0695 27.4597 48.9682 27.4597 48.8318ZM52.1169 48.8318C52.1169 48.6954 52.1169 48.5902 52.1207 48.524C52.1207 48.4538 52.1437 48.4071 52.1742 48.3759C52.2086 48.3447 52.262 48.3291 52.3384 48.3252C52.4147 48.3252 52.5255 48.3213 52.6744 48.3213C52.8233 48.3213 52.934 48.3213 53.0104 48.3252C53.0867 48.3252 53.1402 48.3447 53.1745 48.3759C53.2089 48.4071 53.228 48.4577 53.228 48.524C53.228 48.5941 53.2318 48.6954 53.2318 48.8318C53.2318 48.9682 53.2318 49.0734 53.228 49.1397C53.228 49.2098 53.2051 49.2566 53.1745 49.2878C53.1402 49.3189 53.0867 49.3345 53.0104 49.3384C52.934 49.3384 52.8233 49.3423 52.6744 49.3423C52.5255 49.3423 52.4147 49.3423 52.3384 49.3384C52.262 49.3384 52.2047 49.3189 52.1742 49.2878C52.1398 49.2566 52.1207 49.2059 52.1207 49.1397C52.1207 49.0695 52.1169 48.9682 52.1169 48.8318Z" fill="#683F94"/>
</g>
<path d="M88.7841 28.704V28.016H90.7521V28.704C90.7521 29.6 91.2481 30.304 92.4001 30.304C93.5521 30.304 94.0321 29.648 94.0321 28.624V20.304H96.0801V28.736C96.0801 30.8 94.6401 32.208 92.4161 32.208C90.0161 32.208 88.7841 30.72 88.7841 28.704ZM98.6362 28.032C98.6362 25.568 100.412 23.872 102.86 23.872C105.308 23.872 107.084 25.568 107.084 28.032C107.084 30.496 105.308 32.192 102.86 32.192C100.412 32.192 98.6362 30.496 98.6362 28.032ZM100.588 28.032C100.588 29.472 101.516 30.448 102.86 30.448C104.204 30.448 105.132 29.472 105.132 28.032C105.132 26.592 104.204 25.616 102.86 25.616C101.516 25.616 100.588 26.592 100.588 28.032ZM111.239 32H109.431V20.096H111.383V25.248C111.895 24.368 112.951 23.84 114.151 23.84C116.407 23.84 117.783 25.6 117.783 28.096C117.783 30.528 116.295 32.208 114.023 32.208C112.839 32.208 111.831 31.68 111.367 30.768L111.239 32ZM111.399 28.016C111.399 29.44 112.279 30.416 113.623 30.416C114.999 30.416 115.815 29.424 115.815 28.016C115.815 26.608 114.999 25.6 113.623 25.6C112.279 25.6 111.399 26.592 111.399 28.016ZM119.53 29.6H121.386C121.402 30.288 121.914 30.72 122.81 30.72C123.722 30.72 124.218 30.352 124.218 29.776C124.218 29.376 124.01 29.088 123.306 28.928L121.882 28.592C120.458 28.272 119.77 27.6 119.77 26.336C119.77 24.784 121.082 23.856 122.906 23.856C124.682 23.856 125.882 24.88 125.898 26.416H124.042C124.026 25.744 123.578 25.312 122.826 25.312C122.058 25.312 121.61 25.664 121.61 26.256C121.61 26.704 121.962 26.992 122.634 27.152L124.058 27.488C125.386 27.792 126.058 28.4 126.058 29.616C126.058 31.216 124.698 32.208 122.746 32.208C120.778 32.208 119.53 31.152 119.53 29.6Z" fill="#683F94"/>
<defs>
<clipPath id="clip0_5629_942">
<rect width="80" height="52" fill="white"/>
</clipPath>
</defs>
</svg>
